<svg width="1205" height="1677" viewBox="0 0 1205 1677" fill="none" xmlns="http://www.w3.org/2000/svg">
<g clip-path="url(#clip0_99_173)">
<rect width="1080" height="1350" transform="translate(0 326.657)" fill="#C800DE"/>
<path d="M787.603 1507.14C797.08 1536.49 830.738 1546.47 843.218 1518.26C851.596 1499.32 857.608 1475.93 860.896 1448.83C867.914 1390.99 862.059 1320.08 844.381 1248.83C826.703 1177.58 798.361 1110.65 764.445 1060.08C748.819 1036.77 732.481 1017.65 716.087 1003.23C692.198 982.231 665.09 1005.75 670.581 1037.08C673.951 1056.31 689.778 1071.07 705.616 1082.48C719.756 1092.67 734.03 1108.21 747.522 1128.33C770.533 1162.64 789.763 1208.05 801.756 1256.39C813.75 1304.73 817.723 1352.84 812.961 1392.09C810.606 1411.49 806.191 1428.1 800.003 1441.31C790.451 1461.69 780.688 1485.71 787.603 1507.14Z" fill="#0F172B"/>
<path d="M188.491 1063.78C182.436 1073.88 168.335 1074.32 163.964 1063.38C152.521 1034.76 149.657 994.528 155.97 946.845C164.081 885.586 186.806 816.035 220.064 750.683C253.323 685.33 294.936 628.458 337.432 590.278C370.876 560.23 403.142 543.309 430.677 541.003C441.788 540.072 447.916 551.781 443.549 562.04C440.144 570.039 431.437 574.204 422.747 574.447C397.661 575.149 367.766 590.212 336.72 618.105C299.254 651.767 262.565 701.909 233.242 759.528C203.919 817.146 183.884 878.467 176.733 932.477C170.421 980.154 174.514 1019.38 188.246 1044.82C191.449 1050.75 191.959 1057.99 188.491 1063.78Z" fill="#0F172B"/>
<path d="M738.375 838.526C738.971 834.693 742.34 831.845 746.177 832.412C763.628 834.991 779.501 845.569 792.854 863.586C807.912 883.904 819.38 913.161 826.408 949.192C833.437 985.223 835.846 1027.11 833.458 1071.74C831.148 1114.92 824.406 1159.6 813.708 1202.69C813.167 1204.87 810.68 1205.91 808.742 1204.77C807.444 1204.01 806.808 1202.48 807.174 1201.02C817.575 1159.59 824.124 1116.55 826.348 1074.99C828.616 1032.6 826.327 992.826 819.652 958.608C812.977 924.39 802.086 896.604 787.786 877.309C775.677 860.971 761.387 851.074 745.693 848.082C741.148 847.215 737.665 843.099 738.375 838.526Z" fill="#0F172B"/>
<path d="M713.775 943.089C714.693 932.347 723.685 923.561 734.025 926.612C744.824 929.798 755.132 936.18 764.7 945.647C779.649 960.441 792.497 982.48 802.51 1010.51C812.523 1038.53 819.504 1072 823.056 1108.99C826.368 1143.47 826.638 1180.39 823.865 1217.91C823.519 1222.59 819.692 1226.24 815.001 1226.42C809.405 1226.64 804.888 1221.91 805.269 1216.32C807.388 1185.25 807.073 1154.7 804.327 1126.1C801.272 1094.28 795.266 1065.5 786.654 1041.39C778.041 1017.28 766.99 998.325 754.131 985.6C748.135 979.666 741.8 975.142 735.211 972.063C723.557 966.618 712.678 955.905 713.775 943.089Z" fill="#0F172B"/>
<path d="M722.113 1136.03C728.125 1160.44 755.156 1171.05 768.372 1149.67C780.469 1130.1 789.841 1103.95 795.826 1072.41C806.674 1015.25 805.685 944.124 793.038 871.81C780.391 799.496 756.914 730.73 726.823 677.86C710.426 649.05 692.65 625.989 674.505 609.651C655.247 592.311 631.697 610.504 634.391 636.277C636.033 651.988 647.836 664.656 660.735 673.774C677.596 685.695 694.323 705.654 709.459 732.247C731.676 771.283 749.01 822.056 758.348 875.448C767.686 928.841 768.416 981.356 760.407 1023.56C755.542 1049.19 747.649 1070 737.378 1084.82C726.976 1099.83 717.747 1118.3 722.113 1136.03Z" fill="#0F172B"/>
<path d="M-8.04492 1310.5H857.955V1691.5H-8.04492V1310.5Z" fill="#0F172B"/>
<path d="M17.9551 1213.5H747.955V1310.5H17.9551V1213.5Z" fill="#0F172B"/>
<path d="M343.955 557.502H666.955V1231.5H343.955V557.502Z" fill="#0F172B"/>
<path d="M248.955 734.502H363.955V1213.5H248.955V734.502Z" fill="#0F172B"/>
<path d="M237.13 741.908L244.611 745.522L216.196 804.331L208.714 800.716L237.13 741.908Z" fill="#0F172B"/>
<path d="M241.962 744.242L247.451 746.895L222.125 799.31L216.635 796.658L241.962 744.242Z" fill="#0F172B"/>
<path d="M229.906 777.49L234.561 779.74L225.134 799.249L220.479 797L229.906 777.49Z" fill="#0F172B"/>
<path d="M155.955 1070.5H270.955V1272.5H155.955V1070.5Z" fill="#0F172B"/>
<path d="M632.955 734.502H747.955V1258.5H632.955V734.502Z" fill="#0F172B"/>
<path d="M832.955 1404.5H934.955V1691.5H832.955V1404.5Z" fill="#0F172B"/>
<path d="M468.917 590.988C470.352 591.133 471.634 590.087 471.764 588.651C473.254 572.151 473.075 555.683 471.231 540.097C469.291 523.692 465.544 508.586 460.205 495.642C454.866 482.697 448.04 472.168 440.115 464.654C432.191 457.14 423.324 452.789 414.02 451.85C404.716 450.911 395.158 453.401 385.892 459.18C376.626 464.958 367.832 473.911 360.014 485.527C352.195 497.143 345.505 511.196 340.325 526.881C335.403 541.784 331.936 557.885 330.099 574.349C329.939 575.783 330.986 577.064 332.421 577.208C333.855 577.353 335.135 576.307 335.296 574.874C337.004 559.683 340.209 544.83 344.75 531.078C349.551 516.542 355.75 503.521 362.995 492.756C370.24 481.992 378.389 473.696 386.976 468.341C395.563 462.987 404.419 460.679 413.041 461.549C421.662 462.419 429.879 466.451 437.222 473.414C444.566 480.377 450.891 490.134 455.839 502.129C460.786 514.125 464.258 528.122 466.056 543.324C467.758 557.707 467.929 572.901 466.567 588.126C466.438 589.563 467.482 590.843 468.917 590.988Z" fill="#0F172B"/>
<path d="M258.73 791.403C260.318 789.209 259.815 786.065 257.224 785.275C253.702 784.202 249.475 784.217 244.65 785.333C237.616 786.96 229.447 790.894 220.61 796.91C211.773 802.927 202.441 810.908 193.147 820.398C183.852 829.889 174.778 840.702 166.441 852.222C158.103 863.741 150.668 875.741 144.557 887.536C138.447 899.331 133.782 910.69 130.828 920.964C127.875 931.239 126.691 940.228 127.344 947.418C127.792 952.35 129.099 956.37 131.218 959.38C132.778 961.595 135.922 961.09 137.51 958.895C139.098 956.701 138.522 953.642 137.029 951.383C135.248 948.689 134.145 945.159 133.756 940.871C133.162 934.332 134.238 926.157 136.924 916.814C139.61 907.47 143.853 897.14 149.41 886.414C154.966 875.688 161.729 864.775 169.31 854.299C176.892 843.823 185.145 833.989 193.597 825.359C202.05 816.728 210.536 809.47 218.573 803.998C226.609 798.527 234.038 794.949 240.434 793.47C244.63 792.5 248.327 792.445 251.443 793.294C254.056 794.007 257.141 793.598 258.73 791.403Z" fill="#0F172B"/>
<path d="M218.079 912.585C219.326 907.098 216.314 901.415 210.786 900.365C197 897.747 182.764 900.147 169.606 907.43C153.404 916.397 139.774 932.249 130.895 952.451C122.016 972.652 118.402 996.034 120.632 1018.86C122.38 1036.76 127.645 1053.5 135.811 1067.48C139.132 1073.16 147.02 1073.01 150.861 1067.67C153.436 1064.08 153.271 1059.26 150.909 1055.54C143.717 1044.19 139.094 1030.25 137.63 1015.27C135.893 997.486 138.709 979.267 145.627 963.526C152.546 947.785 163.167 935.433 175.791 928.446C184.459 923.648 193.728 921.57 202.877 922.275C209.601 922.793 216.584 919.162 218.079 912.585Z" fill="#0F172B"/>
<path d="M185.165 919.489C179.158 918.067 175.439 911.955 177.635 906.185C184.599 887.879 196.705 871.829 212.507 859.958C217.308 856.352 224.029 858.051 227.133 863.191C230.247 868.345 228.528 874.997 223.82 878.751C212.854 887.495 204.319 898.868 199.057 911.748C196.791 917.295 190.996 920.87 185.165 919.489Z" fill="#0F172B"/>
<path d="M197.685 1031.99C179.206 1038.77 160.794 1023.76 167.651 1005.32C173.82 988.717 182.496 972.048 193.32 956.11C199.804 946.563 212.906 944.862 222.253 951.631C232.276 958.89 234.008 972.997 227.863 983.739C222.899 992.418 219.052 1001.33 216.489 1010.09C213.646 1019.82 207.198 1028.51 197.685 1031.99Z" fill="#0F172B"/>
<path d="M481.955 545.503C481.955 578.64 455.316 605.503 422.455 605.503C389.594 605.503 362.955 578.64 362.955 545.503C362.955 512.365 389.594 485.503 422.455 485.503C455.316 485.503 481.955 512.365 481.955 545.503Z" fill="#0F172B"/>
<path d="M572.955 518.503C572.955 551.64 546.316 578.503 513.455 578.503C480.594 578.503 453.955 551.64 453.955 518.503C453.955 485.365 480.594 458.503 513.455 458.503C546.316 458.503 572.955 485.365 572.955 518.503Z" fill="#0F172B"/>
<path d="M652.867 534.316C713.02 591.65 746.34 654.333 727.287 674.322C708.235 694.311 644.026 664.036 583.873 606.702C523.719 549.368 490.4 486.685 509.452 466.696C528.504 446.707 592.713 476.981 652.867 534.316Z" fill="#0F172B"/>
<path d="M387.959 651.318C348.886 724.66 297.455 773.59 273.083 760.606C248.712 747.622 260.63 677.641 299.702 604.3C338.775 530.958 390.206 482.028 414.578 495.012C438.949 507.996 427.031 577.976 387.959 651.318Z" fill="#0F172B"/>
<path d="M347.246 739.599C316.882 825.736 271.154 888.121 245.111 878.941C219.067 869.76 222.57 792.49 252.934 706.353C283.298 620.216 329.025 557.831 355.069 567.011C381.112 576.192 377.61 653.462 347.246 739.599Z" fill="#0F172B"/>
<path d="M128.149 1195.31C95.2653 1221.74 54.5824 1225.72 37.2812 1204.2C19.9799 1182.68 32.6121 1143.8 65.4958 1117.37C98.3795 1090.93 139.062 1086.95 156.364 1108.47C173.665 1129.99 161.033 1168.87 128.149 1195.31Z" fill="#0F172B"/>
<path d="M120.919 1251.47C38.457 1317.76 -42.417 1354.05 -59.7182 1332.52C-77.0194 1311 -24.1962 1239.82 58.2657 1173.53C140.728 1107.24 221.602 1070.95 238.903 1092.47C256.204 1113.99 203.381 1185.18 120.919 1251.47Z" fill="#0F172B"/>
<path d="M220.457 1110.49C133.305 1170.48 49.9617 1200.67 34.3048 1177.93C18.6479 1155.18 76.6063 1088.11 163.758 1028.12C250.911 968.133 334.254 937.942 349.911 960.689C365.568 983.435 307.609 1050.51 220.457 1110.49Z" fill="#0F172B"/>
<path d="M306.906 884.721C286.574 988.552 248.123 1068.42 221.023 1063.11C193.924 1057.81 188.438 969.334 208.77 865.504C229.102 761.674 267.553 681.804 294.653 687.111C321.753 692.418 327.238 780.891 306.906 884.721Z" fill="#0F172B"/>
<path d="M785.856 817.002C803.754 921.279 796.2 1009.6 768.984 1014.27C741.768 1018.94 705.195 938.195 687.297 833.918C669.4 729.64 676.954 641.32 704.17 636.649C731.386 631.977 767.958 712.724 785.856 817.002Z" fill="#0F172B"/>
<path d="M1004.37 1563.56C1015.4 1668.79 1002.07 1756.42 974.608 1759.3C947.144 1762.18 915.941 1679.21 904.914 1573.98C893.887 1468.76 907.211 1381.12 934.675 1378.24C962.139 1375.36 993.342 1458.33 1004.37 1563.56Z" fill="#0F172B"/>
<path d="M855.695 1287.84C926.713 1339.94 971.042 1400.23 954.707 1422.49C938.373 1444.76 867.56 1420.57 796.543 1368.47C725.526 1316.37 681.197 1256.08 697.531 1233.82C713.866 1211.55 784.678 1235.74 855.695 1287.84Z" fill="#0F172B"/>
<path d="M789.051 1146.2C776.38 1233.36 753.985 1302.26 739.031 1300.08C724.078 1297.91 722.228 1225.49 734.9 1138.32C747.571 1051.16 769.966 982.265 784.92 984.439C799.873 986.613 801.723 1059.03 789.051 1146.2Z" fill="#0F172B"/>
<path d="M796.106 948.351C802.333 1073.64 785.022 1176.31 757.442 1177.68C729.862 1179.05 702.456 1078.6 696.229 953.315C690.003 828.03 707.313 725.355 734.893 723.984C762.474 722.614 789.879 823.066 796.106 948.351Z" fill="#0F172B"/>
<path d="M968.202 1413.7C990.735 1464.63 988.531 1514.96 963.278 1526.14C938.026 1537.31 899.288 1505.09 876.755 1454.17C854.222 1403.25 856.426 1352.91 881.678 1341.74C906.931 1330.56 945.668 1362.78 968.202 1413.7Z" fill="#0F172B"/>
<path d="M751.167 687.467C778.705 765.872 779.909 836.85 753.855 846.001C727.801 855.152 684.356 799.01 656.818 720.606C629.279 642.201 628.076 571.223 654.13 562.072C680.184 552.921 723.629 609.062 751.167 687.467Z" fill="#0F172B"/>
<ellipse cx="152.573" cy="325.87" rx="63.662" ry="96.4576" transform="rotate(18.8667 152.573 325.87)" fill="#0F172B"/>
<ellipse cx="105.597" cy="382.763" rx="48.2287" ry="77.265" transform="rotate(-92.3086 105.597 382.763)" fill="#0F172B"/>
<ellipse cx="63.662" cy="96.4576" rx="63.662" ry="96.4576" transform="matrix(-0.215477 -0.976509 -0.976509 0.215477 356.309 473.768)" fill="#0F172B"/>
<ellipse cx="48.2287" cy="77.265" rx="48.2287" ry="77.265" transform="matrix(0.98841 0.151808 0.151808 -0.98841 127.214 541.756)" fill="#0F172B"/>
<ellipse cx="935.623" cy="906.207" rx="78.6693" ry="119.196" transform="rotate(-59.6173 935.623 906.207)" fill="#0F172B"/>
<ellipse cx="992.924" cy="977.125" rx="59.5978" ry="95.479" transform="rotate(-170.793 992.924 977.125)" fill="#0F172B"/>
<ellipse cx="78.6693" cy="119.196" rx="78.6693" ry="119.196" transform="matrix(-0.999869 0.0161872 0.0161872 0.999869 1164.97 695.999)" fill="#0F172B"/>
<ellipse cx="59.5978" cy="95.479" rx="59.5978" ry="95.479" transform="matrix(0.34608 -0.938205 -0.938205 -0.34608 1190.77 990.173)" fill="#0F172B"/>
<ellipse cx="684.027" cy="434.804" rx="32.7402" ry="49.6064" transform="rotate(-43.5469 684.027 434.804)" fill="#0F172B"/>
<ellipse cx="698.772" cy="469.766" rx="24.8032" ry="39.736" transform="rotate(-154.722 698.772 469.766)" fill="#0F172B"/>
<ellipse cx="32.7402" cy="49.6064" rx="32.7402" ry="49.6064" transform="matrix(-0.965277 -0.261229 -0.261229 0.965277 799.961 377.161)" fill="#0F172B"/>
<ellipse cx="24.8032" cy="39.736" rx="24.8032" ry="39.736" transform="matrix(0.592269 -0.80574 -0.80574 -0.592269 776.391 497.778)" fill="#0F172B"/>
<rect x="10" y="1226" width="756" height="87" fill="#0F172B"/>
<rect x="-26" y="1616" width="1025" height="87" fill="#0F172B"/>
</g>
<ellipse cx="117.921" cy="75.389" rx="35.0233" ry="53.0657" transform="rotate(-15.4535 117.921 75.389)" fill="#C800DE"/>
<ellipse cx="114.224" cy="115.81" rx="26.5328" ry="42.507" transform="rotate(-126.629 114.224 115.81)" fill="#C800DE"/>
<ellipse cx="35.0233" cy="53.0657" rx="35.0233" ry="53.0657" transform="matrix(-0.728535 -0.685009 -0.685009 0.728535 256.366 79.3936)" fill="#C800DE"/>
<ellipse cx="26.5328" cy="42.507" rx="26.5328" ry="42.507" transform="matrix(0.90192 -0.431904 -0.431904 -0.90192 173.362 181.346)" fill="#C800DE"/>
<ellipse cx="822.711" cy="265.499" rx="22.5887" ry="34.2253" transform="rotate(93.0947 822.711 265.499)" fill="#C800DE"/>
<ellipse cx="798.754" cy="254.945" rx="17.1126" ry="27.4154" transform="rotate(-18.0805 798.754 254.945)" fill="#C800DE"/>
<ellipse cx="22.5887" cy="34.2253" rx="22.5887" ry="34.2253" transform="matrix(0.881176 -0.472788 -0.472788 -0.881176 791.858 349.331)" fill="#C800DE"/>
<ellipse cx="17.1126" cy="27.4154" rx="17.1126" ry="27.4154" transform="matrix(0.122565 0.99246 0.99246 -0.122565 746.549 277.66)" fill="#C800DE"/>
<ellipse cx="277.289" cy="267.094" rx="47.2418" ry="71.5785" transform="rotate(-63.4179 277.289 267.094)" fill="#C800DE"/>
<ellipse cx="314.446" cy="307.307" rx="35.7891" ry="57.3362" transform="rotate(-174.593 314.446 307.307)" fill="#C800DE"/>
<ellipse cx="47.2418" cy="71.5785" rx="47.2418" ry="71.5785" transform="matrix(-0.996597 0.082427 0.082427 0.996597 406.343 132.011)" fill="#C800DE"/>
<ellipse cx="35.7891" cy="57.3362" rx="35.7891" ry="57.3362" transform="matrix(0.283131 -0.959081 -0.959081 -0.283131 433.515 307.25)" fill="#C800DE"/>
<ellipse cx="1024.77" cy="491.972" rx="47.2418" ry="71.5785" transform="rotate(-6.17285 1024.77 491.972)" fill="#C800DE"/>
<ellipse cx="1011.06" cy="544.977" rx="35.7891" ry="57.3362" transform="rotate(-117.348 1011.06 544.977)" fill="#C800DE"/>
<ellipse cx="47.2418" cy="71.5785" rx="47.2418" ry="71.5785" transform="matrix(-0.608526 -0.793534 -0.793534 0.608526 1208.2 527.419)" fill="#C800DE"/>
<ellipse cx="35.7891" cy="57.3362" rx="35.7891" ry="57.3362" transform="matrix(0.959767 -0.280797 -0.280797 -0.959767 1075.53 645.083)" fill="#C800DE"/>
<defs>
<clipPath id="clip0_99_173">
<rect width="1080" height="1350" fill="white" transform="translate(0 326.657)"/>
</clipPath>
</defs>
</svg>
